<svg width="30" height="30" viewBox="0 0 30 30" fill="none" xmlns="http://www.w3.org/2000/svg">
<path d="M15 23.75C19.8325 23.75 23.75 19.8325 23.75 15C23.75 10.1675 19.8325 6.25 15 6.25C10.1675 6.25 6.25 10.1675 6.25 15C6.25 19.8325 10.1675 23.75 15 23.75Z" stroke="#2851E3" stroke-width="2" stroke-linecap="round" stroke-linejoin="round"/>
<path d="M15 11.25V15L16.875 16.875" stroke="#2851E3" stroke-width="2" stroke-linecap="round" stroke-linejoin="round"/>
<path d="M20.6376 21.6875L20.2001 26.475C20.1438 27.0983 19.8557 27.6778 19.3928 28.0991C18.93 28.5203 18.3259 28.7526 17.7001 28.75H12.2876C11.6618 28.7526 11.0577 28.5203 10.5949 28.0991C10.132 27.6778 9.84392 27.0983 9.7876 26.475L9.3501 21.6875M9.3626 8.31252L9.8001 3.52502C9.85623 2.90387 10.1425 2.32613 10.6027 1.90521C11.063 1.4843 11.6639 1.25061 12.2876 1.25002H17.7251C18.3509 1.24748 18.955 1.47977 19.4178 1.90099C19.8807 2.32221 20.1688 2.90172 20.2251 3.52502L20.6626 8.31252" stroke="#2851E3" stroke-width="2" stroke-linecap="round" stroke-linejoin="round"/>
</svg>
